<?xml version="1.0" standalone="no"?>
<!DOCTYPE svg PUBLIC "-//W3C//DTD SVG 20010904//EN"
 "http://www.w3.org/TR/2001/REC-SVG-20010904/DTD/svg10.dtd">
<svg version="1.0" xmlns="http://www.w3.org/2000/svg"
 width="164.000000pt" height="158.000000pt" viewBox="0 0 164.000000 158.000000"
 preserveAspectRatio="xMidYMid meet">
<metadata>
Created by potrace 1.16, written by Peter Selinger 2001-2019
</metadata>
<g transform="translate(0.000000,158.000000) scale(0.100000,-0.100000)"
fill="#000000" stroke="none">
<path d="M290 740 l0 -470 55 0 55 0 0 224 0 223 99 6 c202 11 292 96 278 263
-8 106 -71 188 -162 213 -22 6 -104 11 -182 11 l-143 0 0 -470z m366 387 c23
-27 24 -35 24 -162 0 -127 -1 -135 -24 -162 -23 -27 -28 -28 -140 -31 l-116
-4 0 197 0 197 116 -4 c113 -3 116 -4 140 -31z"/>
<path d="M990 740 l0 -470 60 0 60 0 0 235 0 235 95 0 c95 0 95 0 95 25 0 25
0 25 -95 25 l-95 0 0 185 0 185 110 0 110 0 0 25 0 25 -170 0 -170 0 0 -470z"/>
</g>
</svg>
